<?xml version="1.0" encoding="iso-8859-1"?>
<!-- Uploaded to: SVG Repo, www.svgrepo.com, Generator: SVG Repo Mixer Tools -->
<!DOCTYPE svg PUBLIC "-//W3C//DTD SVG 1.1//EN" "http://www.w3.org/Graphics/SVG/1.1/DTD/svg11.dtd">
<svg fill="#000000" version="1.1" id="Capa_1" xmlns="http://www.w3.org/2000/svg" xmlns:xlink="http://www.w3.org/1999/xlink" 
	 width="800px" height="800px" viewBox="0 0 168.518 168.518"
	 xml:space="preserve">
<g>
	<path d="M168.518,72.557c0-9.181-7.468-16.648-16.648-16.648s-16.648,7.467-16.648,16.648c0,7.776,5.379,14.27,12.599,16.084
		v29.589h-59.4V57.372c7.22-1.819,12.599-8.316,12.599-16.092c0-9.181-7.468-16.648-16.648-16.648
		c-9.181,0-16.648,7.468-16.648,16.648c0,7.776,5.379,14.272,12.599,16.092v60.858h-59.4V88.578
		c7.101-1.898,12.377-8.327,12.377-16.021c0-9.181-7.467-16.648-16.648-16.648C7.467,55.909,0,63.376,0,72.557
		C0,80.42,5.487,86.979,12.825,88.72v33.561c0,2.236,1.814,4.05,4.05,4.05h135c2.236,0,4.051-1.813,4.051-4.05V88.642
		C163.128,86.838,168.518,80.333,168.518,72.557z M75.821,41.286c0-4.714,3.834-8.548,8.548-8.548c4.715,0,8.548,3.834,8.548,8.548
		s-3.833,8.548-8.548,8.548C79.655,49.834,75.821,46,75.821,41.286z M8.095,72.557c0-4.714,3.833-8.548,8.548-8.548
		c4.714,0,8.548,3.834,8.548,8.548s-3.833,8.548-8.548,8.548C11.928,81.105,8.095,77.277,8.095,72.557z M151.87,81.11
		c-4.715,0-8.548-3.833-8.548-8.548c0-4.715,3.833-8.548,8.548-8.548s8.548,3.833,8.548,8.548
		C160.417,77.277,156.584,81.11,151.87,81.11z M155.809,139.836c0,2.235-1.814,4.05-4.05,4.05H16.756c-2.236,0-4.05-1.814-4.05-4.05
		c0-2.236,1.813-4.05,4.05-4.05h135.003C153.995,135.786,155.809,137.595,155.809,139.836z"/>
</g>
</svg>