<?xml version="1.0" encoding="iso-8859-1"?>
<!-- Uploaded to: SVG Repo, www.svgrepo.com, Generator: SVG Repo Mixer Tools -->
<svg fill="#000000" height="800px" width="800px" version="1.1" id="Layer_1" xmlns="http://www.w3.org/2000/svg" xmlns:xlink="http://www.w3.org/1999/xlink" 
	 viewBox="0 0 512 512" xml:space="preserve">
<g transform="translate(0 1)">
	<g>
		<g>
			<path d="M102.4,417.133c-9.387,0-17.067,7.68-17.067,17.067s7.68,17.067,17.067,17.067c9.387,0,17.067-7.68,17.067-17.067
				S111.787,417.133,102.4,417.133z"/>
			<path d="M409.6,417.133c-9.387,0-17.067,7.68-17.067,17.067s7.68,17.067,17.067,17.067s17.067-7.68,17.067-17.067
				S418.987,417.133,409.6,417.133z"/>
			<path d="M490.667,314.733H455.68c-24.747,0-48.64-13.653-62.293-34.987L363.52,231.96c-10.24-17.067-29.867-28.16-50.347-28.16
				h-174.08c-20.48,0-39.253,11.093-50.347,28.16l-19.516,31.616c-0.314-0.028-0.635-0.043-0.964-0.043
				c-28.16,0-51.2-23.04-51.2-51.2V101.4c0-18.773,15.36-34.133,34.133-34.133s34.133,15.36,34.133,34.133
				c0,28.16,23.04,51.2,51.2,51.2c25.253,0,46.375-18.533,50.47-42.667H204.8c5.12,0,8.533-3.413,8.533-8.533V58.733
				c0-5.12-3.413-8.533-8.533-8.533V24.6c0-5.12-3.413-8.533-8.533-8.533s-8.533,3.413-8.533,8.533v25.6h-17.067V24.6
				c0-5.12-3.413-8.533-8.533-8.533S153.6,19.48,153.6,24.6v25.6c-5.12,0-8.533,3.413-8.533,8.533V101.4
				c0,5.12,3.413,8.533,8.533,8.533h15.979c-3.814,14.679-17.216,25.6-33.046,25.6c-18.773,0-34.133-15.36-34.133-34.133
				c0-28.16-23.04-51.2-51.2-51.2C23.04,50.2,0,73.24,0,101.4v110.933c0,34.443,25.857,63.122,59.114,67.631L46.08,301.08
				c-5.12,8.533-14.507,13.653-24.747,13.653c-5.973,0-11.093,2.56-15.36,5.973C2.56,324.973,0,330.093,0,336.067v76.8
				c0,16.213,13.653,29.867,29.867,29.867h13.403c4.075,29.155,28.753,51.2,59.131,51.2c30.378,0,55.056-22.045,59.131-51.2h188.938
				c4.075,29.155,28.753,51.2,59.131,51.2s55.056-22.045,59.131-51.2h9.136c18.773,0,34.133-15.36,34.133-34.133v-72.533
				C512,324.12,502.613,314.733,490.667,314.733z M162.133,67.267h34.133v25.6h-34.133V67.267z M136.533,289.133V255h110.933v34.133
				H136.533z M264.533,255h91.627l21.333,34.133h-112.96V255z M102.4,476.867c-23.893,0-42.667-18.773-42.667-42.667
				s18.773-42.667,42.667-42.667c23.893,0,42.667,18.773,42.667,42.667S126.293,476.867,102.4,476.867z M409.6,476.867
				c-23.893,0-42.667-18.773-42.667-42.667s18.773-42.667,42.667-42.667c23.893,0,42.667,18.773,42.667,42.667
				S433.493,476.867,409.6,476.867z M477.013,425.667h-8.283c-4.075-29.155-28.753-51.2-59.131-51.2
				c-0.138,0-0.274,0.009-0.412,0.01c-0.148-0.001-0.294-0.01-0.441-0.01c-29.867,0-54.613,22.187-58.88,51.2H161.531
				c-3.821-27.339-25.761-48.416-53.528-50.936c-0.203-0.019-0.409-0.029-0.613-0.046c-0.699-0.056-1.397-0.114-2.103-0.147
				c-0.957-0.046-1.919-0.072-2.887-0.072s-1.93,0.026-2.887,0.072c-0.706,0.033-1.404,0.09-2.103,0.147
				c-0.204,0.017-0.41,0.027-0.613,0.046c-27.767,2.52-49.707,23.597-53.528,50.936H29.867c-6.827,0-12.8-5.973-12.8-12.8v-38.4
				h25.6c5.12,0,8.533-3.413,8.533-8.533s-3.413-8.533-8.533-8.533h-25.6v-21.333c0-0.853,0-1.707,1.707-2.56
				c0.853-0.853,1.707-1.707,3.413-1.707c15.36,0,30.72-8.533,38.4-21.333l42.667-69.12c7.68-12.8,21.333-20.48,35.84-20.48h174.08
				c13.243,0,25.758,6.418,33.034,17.92H134.827c-8.533,0-15.36,6.827-15.36,15.36v36.693c0,8.533,6.827,15.36,15.36,15.36h255.962
				c16.629,16.704,39.562,26.453,64.038,26.453h34.987c2.56,0,4.267,1.707,4.267,4.267v20.48h-24.747
				c-5.12,0-8.533,3.413-8.533,8.533s3.413,8.533,8.533,8.533h24.747V408.6C494.08,417.987,486.4,425.667,477.013,425.667z"/>
			<path d="M298.667,331.8H256c-5.12,0-8.533,3.413-8.533,8.533s3.413,8.533,8.533,8.533h34.133v8.533
				c0,5.12,3.413,8.533,8.533,8.533s8.533-3.413,8.533-8.533v-17.067C307.2,335.213,303.787,331.8,298.667,331.8z"/>
		</g>
	</g>
</g>
</svg>