<?xml version="1.0" encoding="iso-8859-1"?>
<!-- Uploaded to: SVG Repo, www.svgrepo.com, Generator: SVG Repo Mixer Tools -->
<!DOCTYPE svg PUBLIC "-//W3C//DTD SVG 1.1//EN" "http://www.w3.org/Graphics/SVG/1.1/DTD/svg11.dtd">
<svg fill="#000000" version="1.1" id="Capa_1" xmlns="http://www.w3.org/2000/svg" xmlns:xlink="http://www.w3.org/1999/xlink" 
	 width="800px" height="800px" viewBox="0 0 66.095 66.094"
	 xml:space="preserve">
<g>
	<g>
		<path d="M1,36.091h7.297v6.464c0,1.654,1.346,3,3,3h10.25c0.145,0,0.28-0.033,0.404-0.089h2.846c0.552,0,1-0.448,1-1v-4.464h7.297
			c0.552,0,1-0.448,1-1v-4c0-0.553-0.448-1-1-1h-7.297v-1.911h7.297c0.552,0,1-0.448,1-1v-4c0-0.552-0.448-1-1-1h-7.297V21.54
			c0-0.552-0.448-1-1-1h-3.25c-0.145,0-0.28,0.034-0.404,0.089h-9.846c-1.654,0-3,1.346-3,3v6.463H1c-0.552,0-1,0.448-1,1v4
			C0,35.645,0.448,36.091,1,36.091z M32.095,36.003v2h-6.297v-2H32.095z M32.095,28.091v2h-6.297v-2H32.095z M23.798,27.091v4v3.911
			v4v4.464h-1.25V22.54h1.25V27.091z M10.298,23.628c0-0.551,0.449-1,1-1h9.25v20.927h-9.25c-0.551,0-1-0.449-1-1v-7.464v-4V23.628z
			 M2,32.091h6.297v2H2V32.091z"/>
		<path d="M65.095,30.003h-7.297v-6.375c0-1.654-1.347-3-3-3h-9.845c-0.125-0.055-0.26-0.089-0.404-0.089h-3.25
			c-0.553,0-1,0.448-1,1v22.927c0,0.552,0.447,1,1,1h2.845c0.124,0.056,0.261,0.089,0.404,0.089h10.25c1.653,0,3-1.346,3-3v-6.553
			h7.297c0.552,0,1-0.448,1-1v-4C66.095,30.45,65.646,30.003,65.095,30.003z M42.299,22.54h1.249v20.927h-1.249V22.54z
			 M55.798,42.555c0,0.551-0.449,1-1,1h-9.249V22.628h9.249c0.551,0,1,0.449,1,1v7.375v4V42.555z M64.095,34.003h-6.297v-2h6.297
			V34.003z"/>
		<path d="M52.798,23.835c-0.552,0-1,0.448-1,1v12.168c0,0.552,0.448,1,1,1s1-0.448,1-1V24.835
			C53.798,24.282,53.35,23.835,52.798,23.835z"/>
	</g>
</g>
</svg>